<mxfile host="65bd71144e">
    <diagram id="KUyfYfS5ek2XAy6vOt01" name="Página-1">
        <mxGraphModel dx="818" dy="480" grid="1" gridSize="10" guides="1" tooltips="1" connect="1" arrows="1" fold="1" page="1" pageScale="1" pageWidth="1169" pageHeight="827" math="0" shadow="0">
            <root>
                <mxCell id="0"/>
                <mxCell id="1" parent="0"/>
                <mxCell id="2" value="Númérico" style="text;html=1;align=left;verticalAlign=middle;resizable=0;points=[];autosize=1;strokeColor=none;fillColor=none;" parent="1" vertex="1">
                    <mxGeometry x="10" y="70" width="70" height="30" as="geometry"/>
                </mxCell>
                <mxCell id="3" value="Data" style="text;html=1;align=left;verticalAlign=middle;resizable=0;points=[];autosize=1;strokeColor=none;fillColor=none;" parent="1" vertex="1">
                    <mxGeometry x="10" y="100" width="50" height="30" as="geometry"/>
                </mxCell>
                <mxCell id="5" value="ELEMENTOS DE COMPOSIÇÃO" style="text;html=1;align=left;verticalAlign=middle;resizable=0;points=[];autosize=1;strokeColor=none;fillColor=none;" parent="1" vertex="1">
                    <mxGeometry x="200" y="40" width="200" height="30" as="geometry"/>
                </mxCell>
                <mxCell id="6" value="FEATURES" style="text;html=1;align=left;verticalAlign=middle;resizable=0;points=[];autosize=1;strokeColor=none;fillColor=none;" parent="1" vertex="1">
                    <mxGeometry x="10" y="40" width="90" height="30" as="geometry"/>
                </mxCell>
                <mxCell id="7" value="Valores Numéricos:&lt;br&gt;&lt;ol&gt;&lt;li&gt;Média&lt;/li&gt;&lt;li&gt;Mediana&lt;/li&gt;&lt;li&gt;Desvio padrão&lt;/li&gt;&lt;li&gt;Variação&lt;/li&gt;&lt;/ol&gt;" style="text;html=1;align=left;verticalAlign=middle;resizable=0;points=[];autosize=1;strokeColor=none;fillColor=none;" parent="1" vertex="1">
                    <mxGeometry x="200" y="70" width="140" height="130" as="geometry"/>
                </mxCell>
                <mxCell id="10" value="Valores Categóricos:&lt;br&gt;&lt;ol&gt;&lt;li&gt;Filtrado&lt;/li&gt;&lt;li&gt;Selecionado&lt;/li&gt;&lt;li&gt;Agrupado&lt;/li&gt;&lt;li&gt;Agregado&lt;/li&gt;&lt;/ol&gt;" style="text;html=1;align=left;verticalAlign=middle;resizable=0;points=[];autosize=1;strokeColor=none;fillColor=none;" parent="1" vertex="1">
                    <mxGeometry x="200" y="200" width="130" height="130" as="geometry"/>
                </mxCell>
                <mxCell id="11" value="Custo&lt;br&gt;" style="text;html=1;align=left;verticalAlign=middle;resizable=0;points=[];autosize=1;strokeColor=none;fillColor=none;" parent="1" vertex="1">
                    <mxGeometry x="680" y="75" width="50" height="30" as="geometry"/>
                </mxCell>
                <mxCell id="12" value="Data" style="text;html=1;align=left;verticalAlign=middle;resizable=0;points=[];autosize=1;strokeColor=none;fillColor=none;" parent="1" vertex="1">
                    <mxGeometry x="680" y="105" width="50" height="30" as="geometry"/>
                </mxCell>
                <mxCell id="13" value="Service_name" style="text;html=1;align=left;verticalAlign=middle;resizable=0;points=[];autosize=1;strokeColor=none;fillColor=none;" parent="1" vertex="1">
                    <mxGeometry x="680" y="135" width="100" height="30" as="geometry"/>
                </mxCell>
                <mxCell id="14" value="FEATURES" style="text;html=1;align=left;verticalAlign=middle;resizable=0;points=[];autosize=1;strokeColor=none;fillColor=none;" parent="1" vertex="1">
                    <mxGeometry x="680" y="40" width="90" height="30" as="geometry"/>
                </mxCell>
                <mxCell id="23" value="Tabela de features" style="shape=table;startSize=30;container=1;collapsible=0;childLayout=tableLayout;fontStyle=1;align=center;fontFamily=Helvetica;fontSize=12;" parent="1" vertex="1">
                    <mxGeometry x="18" y="338" width="942" height="411" as="geometry"/>
                </mxCell>
                <mxCell id="24" value="" style="shape=tableRow;horizontal=0;startSize=0;swimlaneHead=0;swimlaneBody=0;top=0;left=0;bottom=0;right=0;collapsible=0;dropTarget=0;fillColor=none;points=[[0,0.5],[1,0.5]];portConstraint=eastwest;fontFamily=Helvetica;fontSize=12;" parent="23" vertex="1">
                    <mxGeometry y="30" width="942" height="31" as="geometry"/>
                </mxCell>
                <mxCell id="25" value="Nome da feature" style="shape=partialRectangle;html=1;whiteSpace=wrap;connectable=0;fillColor=none;top=0;left=0;bottom=0;right=0;overflow=hidden;fontFamily=Helvetica;fontSize=12;align=center;" parent="24" vertex="1">
                    <mxGeometry width="172" height="31" as="geometry">
                        <mxRectangle width="172" height="31" as="alternateBounds"/>
                    </mxGeometry>
                </mxCell>
                <mxCell id="39" value="Colunas utilizadas" style="shape=partialRectangle;html=1;whiteSpace=wrap;connectable=0;fillColor=none;top=0;left=0;bottom=0;right=0;overflow=hidden;fontFamily=Helvetica;fontSize=12;align=center;" parent="24" vertex="1">
                    <mxGeometry x="172" width="175" height="31" as="geometry">
                        <mxRectangle width="175" height="31" as="alternateBounds"/>
                    </mxGeometry>
                </mxCell>
                <mxCell id="26" value="&lt;span style=&quot;&quot;&gt;O que você pretende responder com essa feature?&lt;/span&gt;" style="shape=partialRectangle;html=1;whiteSpace=wrap;connectable=0;fillColor=none;top=0;left=0;bottom=0;right=0;overflow=hidden;fontFamily=Helvetica;fontSize=12;align=center;" parent="24" vertex="1">
                    <mxGeometry x="347" width="298" height="31" as="geometry">
                        <mxRectangle width="298" height="31" as="alternateBounds"/>
                    </mxGeometry>
                </mxCell>
                <mxCell id="47" value="Lógica de aplicação" style="shape=partialRectangle;html=1;whiteSpace=wrap;connectable=0;fillColor=none;top=0;left=0;bottom=0;right=0;overflow=hidden;fontFamily=Helvetica;fontSize=12;align=center;" parent="24" vertex="1">
                    <mxGeometry x="645" width="297" height="31" as="geometry">
                        <mxRectangle width="297" height="31" as="alternateBounds"/>
                    </mxGeometry>
                </mxCell>
                <mxCell id="28" value="" style="shape=tableRow;horizontal=0;startSize=0;swimlaneHead=0;swimlaneBody=0;top=0;left=0;bottom=0;right=0;collapsible=0;dropTarget=0;fillColor=none;points=[[0,0.5],[1,0.5]];portConstraint=eastwest;fontFamily=Helvetica;fontSize=12;" parent="23" vertex="1">
                    <mxGeometry y="61" width="942" height="50" as="geometry"/>
                </mxCell>
                <mxCell id="29" value="dia_da_semana" style="shape=partialRectangle;html=1;whiteSpace=wrap;connectable=0;fillColor=none;top=0;left=0;bottom=0;right=0;overflow=hidden;fontFamily=Helvetica;fontSize=12;align=left;" parent="28" vertex="1">
                    <mxGeometry width="172" height="50" as="geometry">
                        <mxRectangle width="172" height="50" as="alternateBounds"/>
                    </mxGeometry>
                </mxCell>
                <mxCell id="40" value="date" style="shape=partialRectangle;html=1;whiteSpace=wrap;connectable=0;fillColor=none;top=0;left=0;bottom=0;right=0;overflow=hidden;fontFamily=Helvetica;fontSize=12;align=left;rowspan=2;colspan=1;" parent="28" vertex="1">
                    <mxGeometry x="172" width="175" height="100" as="geometry">
                        <mxRectangle width="175" height="50" as="alternateBounds"/>
                    </mxGeometry>
                </mxCell>
                <mxCell id="30" value="Separar o período dos dias úteis.&lt;br&gt;Saber se há mais acesso na semana ou no final de semana. Para isso preciso de uma média agregadora.&lt;br&gt;Posso também fazer um filtro dos dias da semana" style="shape=partialRectangle;html=1;whiteSpace=wrap;connectable=0;fillColor=none;top=0;left=0;bottom=0;right=0;overflow=hidden;fontFamily=Helvetica;fontSize=12;align=left;rowspan=2;colspan=1;" parent="28" vertex="1">
                    <mxGeometry x="347" width="298" height="100" as="geometry">
                        <mxRectangle width="298" height="50" as="alternateBounds"/>
                    </mxGeometry>
                </mxCell>
                <mxCell id="48" value="df[&quot;dia_da_semana&quot;] = df['date'].dt.dayofweek" style="shape=partialRectangle;html=1;whiteSpace=wrap;connectable=0;fillColor=none;top=0;left=0;bottom=0;right=0;overflow=hidden;fontFamily=Helvetica;fontSize=12;align=left;" parent="28" vertex="1">
                    <mxGeometry x="645" width="297" height="50" as="geometry">
                        <mxRectangle width="297" height="50" as="alternateBounds"/>
                    </mxGeometry>
                </mxCell>
                <mxCell id="50" style="shape=tableRow;horizontal=0;startSize=0;swimlaneHead=0;swimlaneBody=0;top=0;left=0;bottom=0;right=0;collapsible=0;dropTarget=0;fillColor=none;points=[[0,0.5],[1,0.5]];portConstraint=eastwest;fontFamily=Helvetica;fontSize=12;" parent="23" vertex="1">
                    <mxGeometry y="111" width="942" height="50" as="geometry"/>
                </mxCell>
                <mxCell id="51" value="fim_de_semana" style="shape=partialRectangle;html=1;whiteSpace=wrap;connectable=0;fillColor=none;top=0;left=0;bottom=0;right=0;overflow=hidden;fontFamily=Helvetica;fontSize=12;align=left;" parent="50" vertex="1">
                    <mxGeometry width="172" height="50" as="geometry">
                        <mxRectangle width="172" height="50" as="alternateBounds"/>
                    </mxGeometry>
                </mxCell>
                <mxCell id="52" value="" style="shape=partialRectangle;html=1;whiteSpace=wrap;connectable=0;fillColor=none;top=0;left=0;bottom=0;right=0;overflow=hidden;fontFamily=Helvetica;fontSize=12;align=left;" parent="50" vertex="1" visible="0">
                    <mxGeometry x="172" width="175" height="50" as="geometry">
                        <mxRectangle width="175" height="50" as="alternateBounds"/>
                    </mxGeometry>
                </mxCell>
                <mxCell id="54" style="shape=partialRectangle;html=1;whiteSpace=wrap;connectable=0;fillColor=none;top=0;left=0;bottom=0;right=0;overflow=hidden;fontFamily=Helvetica;fontSize=12;align=left;" parent="50" vertex="1" visible="0">
                    <mxGeometry x="347" width="298" height="50" as="geometry">
                        <mxRectangle width="298" height="50" as="alternateBounds"/>
                    </mxGeometry>
                </mxCell>
                <mxCell id="55" value="df['fim_de_semana'] = df['dia_da_semana'].apply(lambda x: 1 if x &amp;gt;= 5 else 0)" style="shape=partialRectangle;html=1;whiteSpace=wrap;connectable=0;fillColor=none;top=0;left=0;bottom=0;right=0;overflow=hidden;fontFamily=Helvetica;fontSize=12;align=left;" parent="50" vertex="1">
                    <mxGeometry x="645" width="297" height="50" as="geometry">
                        <mxRectangle width="297" height="50" as="alternateBounds"/>
                    </mxGeometry>
                </mxCell>
                <mxCell id="80" style="shape=tableRow;horizontal=0;startSize=0;swimlaneHead=0;swimlaneBody=0;top=0;left=0;bottom=0;right=0;collapsible=0;dropTarget=0;fillColor=none;points=[[0,0.5],[1,0.5]];portConstraint=eastwest;fontFamily=Helvetica;fontSize=12;" parent="23" vertex="1">
                    <mxGeometry y="161" width="942" height="50" as="geometry"/>
                </mxCell>
                <mxCell id="81" value="custo_medio_diario" style="shape=partialRectangle;html=1;whiteSpace=wrap;connectable=0;fillColor=none;top=0;left=0;bottom=0;right=0;overflow=hidden;fontFamily=Helvetica;fontSize=12;align=left;" parent="80" vertex="1">
                    <mxGeometry width="172" height="50" as="geometry">
                        <mxRectangle width="172" height="50" as="alternateBounds"/>
                    </mxGeometry>
                </mxCell>
                <mxCell id="82" value="cost, maquina, date" style="shape=partialRectangle;html=1;whiteSpace=wrap;connectable=0;fillColor=none;top=0;left=0;bottom=0;right=0;overflow=hidden;fontFamily=Helvetica;fontSize=12;align=left;" parent="80" vertex="1">
                    <mxGeometry x="172" width="175" height="50" as="geometry">
                        <mxRectangle width="175" height="50" as="alternateBounds"/>
                    </mxGeometry>
                </mxCell>
                <mxCell id="84" value="Tentar entende uma correlação do custo com as outra variáveis" style="shape=partialRectangle;html=1;whiteSpace=wrap;connectable=0;fillColor=none;top=0;left=0;bottom=0;right=0;overflow=hidden;fontFamily=Helvetica;fontSize=12;align=left;" parent="80" vertex="1">
                    <mxGeometry x="347" width="298" height="50" as="geometry">
                        <mxRectangle width="298" height="50" as="alternateBounds"/>
                    </mxGeometry>
                </mxCell>
                <mxCell id="85" value="df['custo_diario'] = df.loc[:,['cost']].groupby(['maquina','date']).sum().reset_index()" style="shape=partialRectangle;html=1;whiteSpace=wrap;connectable=0;fillColor=none;top=0;left=0;bottom=0;right=0;overflow=hidden;fontFamily=Helvetica;fontSize=12;align=left;" parent="80" vertex="1">
                    <mxGeometry x="645" width="297" height="50" as="geometry">
                        <mxRectangle width="297" height="50" as="alternateBounds"/>
                    </mxGeometry>
                </mxCell>
                <mxCell id="74" style="shape=tableRow;horizontal=0;startSize=0;swimlaneHead=0;swimlaneBody=0;top=0;left=0;bottom=0;right=0;collapsible=0;dropTarget=0;fillColor=none;points=[[0,0.5],[1,0.5]];portConstraint=eastwest;fontFamily=Helvetica;fontSize=12;" parent="23" vertex="1">
                    <mxGeometry y="211" width="942" height="50" as="geometry"/>
                </mxCell>
                <mxCell id="75" value="custo_media_movel_semanal" style="shape=partialRectangle;html=1;whiteSpace=wrap;connectable=0;fillColor=none;top=0;left=0;bottom=0;right=0;overflow=hidden;fontFamily=Helvetica;fontSize=12;align=left;" parent="74" vertex="1">
                    <mxGeometry width="172" height="50" as="geometry">
                        <mxRectangle width="172" height="50" as="alternateBounds"/>
                    </mxGeometry>
                </mxCell>
                <mxCell id="76" value="cost, maquina, date" style="shape=partialRectangle;html=1;whiteSpace=wrap;connectable=0;fillColor=none;top=0;left=0;bottom=0;right=0;overflow=hidden;fontFamily=Helvetica;fontSize=12;align=left;" parent="74" vertex="1">
                    <mxGeometry x="172" width="175" height="50" as="geometry">
                        <mxRectangle width="175" height="50" as="alternateBounds"/>
                    </mxGeometry>
                </mxCell>
                <mxCell id="78" style="shape=partialRectangle;html=1;whiteSpace=wrap;connectable=0;fillColor=none;top=0;left=0;bottom=0;right=0;overflow=hidden;fontFamily=Helvetica;fontSize=12;align=left;" parent="74" vertex="1">
                    <mxGeometry x="347" width="298" height="50" as="geometry">
                        <mxRectangle width="298" height="50" as="alternateBounds"/>
                    </mxGeometry>
                </mxCell>
                <mxCell id="79" style="shape=partialRectangle;html=1;whiteSpace=wrap;connectable=0;fillColor=none;top=0;left=0;bottom=0;right=0;overflow=hidden;fontFamily=Helvetica;fontSize=12;align=left;" parent="74" vertex="1">
                    <mxGeometry x="645" width="297" height="50" as="geometry">
                        <mxRectangle width="297" height="50" as="alternateBounds"/>
                    </mxGeometry>
                </mxCell>
                <mxCell id="68" style="shape=tableRow;horizontal=0;startSize=0;swimlaneHead=0;swimlaneBody=0;top=0;left=0;bottom=0;right=0;collapsible=0;dropTarget=0;fillColor=none;points=[[0,0.5],[1,0.5]];portConstraint=eastwest;fontFamily=Helvetica;fontSize=12;" parent="23" vertex="1">
                    <mxGeometry y="261" width="942" height="50" as="geometry"/>
                </mxCell>
                <mxCell id="69" value="custo_media_movel_mensal" style="shape=partialRectangle;html=1;whiteSpace=wrap;connectable=0;fillColor=none;top=0;left=0;bottom=0;right=0;overflow=hidden;fontFamily=Helvetica;fontSize=12;align=left;" parent="68" vertex="1">
                    <mxGeometry width="172" height="50" as="geometry">
                        <mxRectangle width="172" height="50" as="alternateBounds"/>
                    </mxGeometry>
                </mxCell>
                <mxCell id="70" style="shape=partialRectangle;html=1;whiteSpace=wrap;connectable=0;fillColor=none;top=0;left=0;bottom=0;right=0;overflow=hidden;fontFamily=Helvetica;fontSize=12;align=left;" parent="68" vertex="1">
                    <mxGeometry x="172" width="175" height="50" as="geometry">
                        <mxRectangle width="175" height="50" as="alternateBounds"/>
                    </mxGeometry>
                </mxCell>
                <mxCell id="72" style="shape=partialRectangle;html=1;whiteSpace=wrap;connectable=0;fillColor=none;top=0;left=0;bottom=0;right=0;overflow=hidden;fontFamily=Helvetica;fontSize=12;align=left;" parent="68" vertex="1">
                    <mxGeometry x="347" width="298" height="50" as="geometry">
                        <mxRectangle width="298" height="50" as="alternateBounds"/>
                    </mxGeometry>
                </mxCell>
                <mxCell id="73" style="shape=partialRectangle;html=1;whiteSpace=wrap;connectable=0;fillColor=none;top=0;left=0;bottom=0;right=0;overflow=hidden;fontFamily=Helvetica;fontSize=12;align=left;" parent="68" vertex="1">
                    <mxGeometry x="645" width="297" height="50" as="geometry">
                        <mxRectangle width="297" height="50" as="alternateBounds"/>
                    </mxGeometry>
                </mxCell>
                <mxCell id="62" style="shape=tableRow;horizontal=0;startSize=0;swimlaneHead=0;swimlaneBody=0;top=0;left=0;bottom=0;right=0;collapsible=0;dropTarget=0;fillColor=none;points=[[0,0.5],[1,0.5]];portConstraint=eastwest;fontFamily=Helvetica;fontSize=12;" parent="23" vertex="1">
                    <mxGeometry y="311" width="942" height="50" as="geometry"/>
                </mxCell>
                <mxCell id="63" style="shape=partialRectangle;html=1;whiteSpace=wrap;connectable=0;fillColor=none;top=0;left=0;bottom=0;right=0;overflow=hidden;fontFamily=Helvetica;fontSize=12;align=left;" parent="62" vertex="1">
                    <mxGeometry width="172" height="50" as="geometry">
                        <mxRectangle width="172" height="50" as="alternateBounds"/>
                    </mxGeometry>
                </mxCell>
                <mxCell id="64" style="shape=partialRectangle;html=1;whiteSpace=wrap;connectable=0;fillColor=none;top=0;left=0;bottom=0;right=0;overflow=hidden;fontFamily=Helvetica;fontSize=12;align=left;" parent="62" vertex="1">
                    <mxGeometry x="172" width="175" height="50" as="geometry">
                        <mxRectangle width="175" height="50" as="alternateBounds"/>
                    </mxGeometry>
                </mxCell>
                <mxCell id="66" style="shape=partialRectangle;html=1;whiteSpace=wrap;connectable=0;fillColor=none;top=0;left=0;bottom=0;right=0;overflow=hidden;fontFamily=Helvetica;fontSize=12;align=left;" parent="62" vertex="1">
                    <mxGeometry x="347" width="298" height="50" as="geometry">
                        <mxRectangle width="298" height="50" as="alternateBounds"/>
                    </mxGeometry>
                </mxCell>
                <mxCell id="67" style="shape=partialRectangle;html=1;whiteSpace=wrap;connectable=0;fillColor=none;top=0;left=0;bottom=0;right=0;overflow=hidden;fontFamily=Helvetica;fontSize=12;align=left;" parent="62" vertex="1">
                    <mxGeometry x="645" width="297" height="50" as="geometry">
                        <mxRectangle width="297" height="50" as="alternateBounds"/>
                    </mxGeometry>
                </mxCell>
                <mxCell id="56" style="shape=tableRow;horizontal=0;startSize=0;swimlaneHead=0;swimlaneBody=0;top=0;left=0;bottom=0;right=0;collapsible=0;dropTarget=0;fillColor=none;points=[[0,0.5],[1,0.5]];portConstraint=eastwest;fontFamily=Helvetica;fontSize=12;align=left;" parent="23" vertex="1">
                    <mxGeometry y="361" width="942" height="50" as="geometry"/>
                </mxCell>
                <mxCell id="57" style="shape=partialRectangle;html=1;whiteSpace=wrap;connectable=0;fillColor=none;top=0;left=0;bottom=0;right=0;overflow=hidden;fontFamily=Helvetica;fontSize=12;align=left;" parent="56" vertex="1">
                    <mxGeometry width="172" height="50" as="geometry">
                        <mxRectangle width="172" height="50" as="alternateBounds"/>
                    </mxGeometry>
                </mxCell>
                <mxCell id="58" style="shape=partialRectangle;html=1;whiteSpace=wrap;connectable=0;fillColor=none;top=0;left=0;bottom=0;right=0;overflow=hidden;fontFamily=Helvetica;fontSize=12;align=left;" parent="56" vertex="1">
                    <mxGeometry x="172" width="175" height="50" as="geometry">
                        <mxRectangle width="175" height="50" as="alternateBounds"/>
                    </mxGeometry>
                </mxCell>
                <mxCell id="60" style="shape=partialRectangle;html=1;whiteSpace=wrap;connectable=0;fillColor=none;top=0;left=0;bottom=0;right=0;overflow=hidden;fontFamily=Helvetica;fontSize=12;align=left;" parent="56" vertex="1">
                    <mxGeometry x="347" width="298" height="50" as="geometry">
                        <mxRectangle width="298" height="50" as="alternateBounds"/>
                    </mxGeometry>
                </mxCell>
                <mxCell id="61" style="shape=partialRectangle;html=1;whiteSpace=wrap;connectable=0;fillColor=none;top=0;left=0;bottom=0;right=0;overflow=hidden;fontFamily=Helvetica;fontSize=12;align=left;" parent="56" vertex="1">
                    <mxGeometry x="645" width="297" height="50" as="geometry">
                        <mxRectangle width="297" height="50" as="alternateBounds"/>
                    </mxGeometry>
                </mxCell>
                <mxCell id="86" value="String" style="text;html=1;align=left;verticalAlign=middle;resizable=0;points=[];autosize=1;strokeColor=none;fillColor=none;fontSize=12;fontFamily=Helvetica;" parent="1" vertex="1">
                    <mxGeometry x="10" y="130" width="50" height="30" as="geometry"/>
                </mxCell>
                <mxCell id="87" value="Valores Data:&lt;br&gt;&lt;ol&gt;&lt;li&gt;Milisegundos&lt;/li&gt;&lt;li&gt;Segundos&lt;/li&gt;&lt;li&gt;Minutos&lt;/li&gt;&lt;li&gt;Horas&lt;/li&gt;&lt;li&gt;Dias&lt;/li&gt;&lt;li&gt;Semanas&lt;/li&gt;&lt;li&gt;Meses&lt;/li&gt;&lt;li&gt;Bimestres...Trimestres...&lt;/li&gt;&lt;li&gt;Anos&lt;/li&gt;&lt;li&gt;Décadas&lt;/li&gt;&lt;/ol&gt;" style="text;html=1;align=left;verticalAlign=middle;resizable=0;points=[];autosize=1;strokeColor=none;fillColor=none;fontSize=12;fontFamily=Helvetica;" parent="1" vertex="1">
                    <mxGeometry x="340" y="70" width="190" height="260" as="geometry"/>
                </mxCell>
            </root>
        </mxGraphModel>
    </diagram>
</mxfile>